# Alias OBJ Model File
# Exported from SketchUp, (c) 2000-2012 Trimble Navigation Limited
# File units = meters

mtllib SIMULACION C BALCONES11.mtl

g Mesh1 Group1 Model

usemtl FrontColor
v 3.74464 8.71245 -39.519
vt -884.773 0
vn 0 -1 -0
v -10.3706 8.71245 -39.519
vt -329.056 0
v -9.84605 8.71245 -40.6025
vt -349.706 42.6575
v 3.74464 8.71245 -40.6025
vt -884.773 42.6575
f 1/1/1 2/2/1 3/3/1 4/4/1 

vt 884.773 343.01
vn 1.91319e-15 -2.03814e-16 1
v 3.74464 7.43745 -39.519
vt 884.773 292.813
v -10.3706 7.43745 -39.519
vt 329.056 292.813
v -10.3706 5.82535 -39.519
vt 329.056 229.344
v 3.74464 5.82535 -39.519
vt 884.773 229.344
v 5.43378 5.82535 -39.519
vt 951.274 229.344
v 5.43378 11.6507 -39.519
vt 951.274 458.689
v -10.3706 11.6507 -39.519
vt 329.056 458.689
vt 329.056 343.01
f 1/5/2 5/6/2 6/7/2 7/8/2 8/9/2 9/10/2 10/11/2 11/12/2 2/13/2 

vt 0 292.813
vn -1 0 -0
vt 0 343.01
vt -42.6575 343.01
v 3.74464 7.43745 -40.6025
vt -42.6575 292.813
f 5/14/3 1/15/3 4/16/3 12/17/3 

vn 0 0 1
vt 349.706 343.01
v -9.84605 7.43745 -40.6025
vt 349.706 292.813
f 4/5/4 3/18/4 13/19/4 12/6/4 

v -17.6494 7.43745 -50.5938
vt -317.479 292.813
vn -0.788116 -9.06341e-16 0.615527
vt 181.634 292.813
vt 181.634 343.01
v -17.6494 8.71245 -50.5938
vt -317.479 343.01
f 14/20/5 13/21/5 3/22/5 15/23/5 

v -18.7286 7.43745 -50.2206
vt 1.90462e-14 421.321
vn -6.50456e-17 1 5.12175e-17
vt 329.056 1.49971e-14
vt 884.773 1.49971e-14
vt 884.773 42.6575
vt 349.706 42.6575
vt 42.4882 436.017
v -17.6494 7.43745 -66.8086
vt 42.4882 1074.39
v -9.81043 7.43745 -76.8455
vt 351.108 1469.55
v 3.74464 7.43745 -76.8455
vt 884.773 1469.55
v 3.74464 7.43745 -77.9245
vt 884.773 1512.03
v -10.3706 7.43745 -77.9245
vt 329.056 1512.03
v -18.7286 7.43745 -67.2229
vt 1.90462e-14 1090.71
f 16/24/6 6/25/6 5/26/6 12/27/6 13/28/6 14/29/6 17/30/6 18/31/6 19/32/6 20/33/6 21/34/6 22/35/6 

vt 202.543 229.344
vn -0.788116 -7.1176e-16 0.615527
vt 202.543 292.813
vt -332.05 292.813
v -18.7286 5.82535 -50.2206
vt -332.05 229.344
f 7/36/7 6/37/7 16/38/7 23/39/7 

vt -1090.71 292.813
vn -1 -8.95616e-16 8.49189e-17
v -18.7286 5.82535 -67.2229
vt -1090.71 229.344
vt -421.321 229.344
vt -421.321 292.813
f 22/40/8 24/41/8 23/42/8 16/43/8 

vt -859.603 229.344
vn -0.788116 0 -0.615527
vt -859.603 292.813
vt -1394.19 292.813
v -10.3706 5.82535 -77.9245
vt -1394.19 229.344
f 24/44/9 22/45/9 21/46/9 25/47/9 

v 5.43378 11.6507 -77.9245
vt -951.274 458.689
vn 2.5147e-15 -1.06044e-15 -1
v 5.43378 5.82535 -77.9245
vt -951.274 229.344
v 3.74464 5.82535 -77.9245
vt -884.773 229.344
vt -329.056 229.344
vt -329.056 292.813
vt -884.773 292.813
v 3.74464 8.71245 -77.9245
vt -884.773 343.01
v -10.3706 8.71245 -77.9245
vt -329.056 343.01
v -10.3706 11.6507 -77.9245
vt -329.056 458.689
f 26/48/10 27/49/10 28/50/10 25/51/10 21/52/10 20/53/10 29/54/10 30/55/10 31/56/10 

vt 1512.03 458.689
vn 1 9.89503e-33 -1.00135e-16
vt 1.72373e-12 458.689
vt 1.72373e-12 229.344
v 5.43378 0 -50.2206
vt 421.321 -9.41289e-30
v 5.43378 1.3139 -50.2206
vt 421.321 51.7283
v 5.43378 1.3139 -54.74
vt 599.251 51.7283
v 5.43378 5.82535 -54.74
vt 599.251 229.344
v 5.43378 5.82535 -62.7035
vt 912.775 229.344
v 5.43378 1.3139 -62.7035
vt 912.775 51.7283
v 5.43378 1.3139 -67.2229
vt 1090.71 51.7283
v 5.43378 0 -67.2229
vt 1090.71 -9.41289e-30
vt 1512.03 229.344
f 26/57/11 10/58/11 9/59/11 32/60/11 33/61/11 34/62/11 35/63/11 36/64/11 37/65/11 38/66/11 39/67/11 27/68/11 

vt 951.274 1.81899e-12
vn 0 1 -0
vt 951.274 1512.03
v -18.7286 11.6507 -67.2229
vt 0 1090.71
v -18.7286 11.6507 -50.2206
vt 1.13687e-13 421.321
vt 329.056 0
f 10/69/12 26/70/12 31/34/12 40/71/12 41/72/12 11/73/12 

vt -1394.19 458.689
vn -0.788116 -8.36697e-17 -0.615527
vt -1394.19 343.01
v -18.7286 8.71245 -67.2229
vt -859.603 343.01
vt -859.603 458.689
f 31/74/13 30/75/13 42/76/13 40/77/13 

v -9.81043 8.71245 -76.8455
vt -351.108 1469.55
vn 1.10088e-15 -1 7.25158e-16
v -17.6494 8.71245 -66.8086
vt -42.4882 1074.39
vt -3.77613e-13 1090.71
vt -329.056 1512.03
f 43/78/14 44/79/14 42/80/14 30/81/14 

vt -872.898 343.01
vn -0.788116 -1.56604e-16 -0.615527
vt -1374.29 343.01
vt -1374.29 292.813
vt -872.898 292.813
f 44/82/15 43/83/15 18/84/15 17/85/15 

vn 1.70424e-15 -1.81186e-14 -1
vt -351.108 292.813
vt -351.108 343.01
v 3.74464 8.71245 -76.8455
f 19/53/16 18/86/16 43/87/16 45/54/16 

vn 1.02205e-16 -1 3.98781e-15
vt -884.773 1512.03
vt -884.773 1469.55
f 43/78/17 30/81/17 29/88/17 45/89/17 

vt -1512.03 343.01
vn -1 -5.93062e-29 -1.63662e-15
vt -1512.03 292.813
vt -1469.55 292.813
vt -1469.55 343.01
f 29/90/18 20/91/18 19/92/18 45/93/18 

vt -1074.39 292.813
vt -436.017 292.813
vt -436.017 343.01
vt -1074.39 343.01
f 17/94/3 14/95/3 15/96/3 44/97/3 

vt -42.4882 436.017
v -18.7286 8.71245 -50.2206
vt 0 421.321
f 42/71/1 44/79/1 15/98/1 46/99/1 

f 46/99/1 15/98/1 3/3/1 2/2/1 

vt -332.05 458.689
vn -0.788116 4.2852e-16 0.615527
vt -332.05 343.01
vt 202.543 343.01
vt 202.543 458.689
f 41/100/19 46/101/19 2/102/19 11/103/19 

vt -421.321 343.01
vn -1 4.91389e-16 8.49189e-17
vt -421.321 458.689
vt -1090.71 458.689
vt -1090.71 343.01
f 46/104/20 41/105/20 40/106/20 42/107/20 

vt 951.274 109.65
vn 8.84912e-16 -0.878304 0.478102
vt 884.773 109.65
v 3.74464 0 -50.2206
vt 884.773 -370.048
vt 951.274 -370.048
f 9/108/21 8/109/21 47/110/21 32/111/21 

v -6.19384 0 -50.2206
vt 493.494 -370.048
vn 9.29595e-16 -0.878304 0.478102
vt 329.056 109.65
f 48/112/22 47/110/22 8/109/22 7/113/22 

v -8.9949 0 -64.4219
vt -383.216 980.427
v -6.19384 0 -67.2229
vt -493.494 1090.71
v 3.74464 0 -67.2229
vt -884.773 1090.71
vt -884.773 421.321
vt -493.494 421.321
v -7.59437 0 -51.6211
vt -438.355 476.46
v -8.9949 0 -53.0216
vt -383.216 531.599
f 49/114/1 50/115/1 51/116/1 47/117/1 48/118/1 52/119/1 53/120/1 

vt -771.245 770.47
vn -0.388366 -0.83567 -0.388366
vt -1120.2 352.897
vt -964.241 352.897
f 24/121/23 50/122/23 49/123/23

vt -1163.36 243.281
vn -0.400319 -0.86139 -0.312653
vt -859.603 694.796
vt -1394.19 694.796
f 50/124/24 24/125/24 25/126/24

vt -329.056 1437.67
vn 9.80672e-16 -0.878304 -0.478102
vt -884.773 1437.67
vt -884.773 957.972
vt -493.494 957.972
f 25/127/25 28/128/25 51/129/25 50/130/25 

vt -951.274 957.972
vn 2.96151e-16 -0.878304 -0.478102
vt -951.274 1437.67
f 39/131/26 51/129/26 28/128/26 27/132/26 

vt 951.274 0
vt 951.274 51.7283
v 3.74464 1.3139 -67.2229
vt 884.773 51.7283
vt 884.773 0
f 39/133/4 38/134/4 54/135/4 51/136/4 

vt -951.274 1090.71
vn -1.06846e-16 -1 2.06267e-32
vt -951.274 912.775
vt -951.274 599.251
vt -951.274 421.321
v 3.74464 1.3139 -50.2206
f 38/137/27 37/138/27 34/139/27 33/140/27 55/117/27 54/116/27 

v 7.96066 1.3139 -62.7035
vt -1050.76 912.775
v 7.96066 1.3139 -54.74
vt -1050.76 599.251
f 37/138/1 56/141/1 57/142/1 34/139/1 

vt -951.274 51.7283
vn 0 0 -1
v 7.96066 5.82535 -62.7035
vt -1050.76 229.344
vt -1050.76 51.7283
f 37/143/28 36/49/28 58/144/28 56/145/28 

vt 1050.76 912.775
vt 951.274 912.775
vt 951.274 599.251
v 7.96066 5.82535 -54.74
vt 1050.76 599.251
f 58/146/12 36/147/12 35/148/12 59/149/12 

vt 1050.76 51.7283
vt 1050.76 229.344
f 35/10/4 34/134/4 57/150/4 59/151/4 

vn 1 1.98077e-46 -3.62609e-16
f 56/65/29 58/64/29 59/63/29 57/62/29 

vt -951.274 0
vt -884.773 51.7283
f 33/143/28 32/152/28 47/1/28 55/153/28 

vt 1090.71 -5.93557e-29
vn 1 6.70858e-32 -1.69838e-16
vt 421.321 -5.93557e-29
f 51/154/30 54/66/30 55/61/30 47/155/30 

vt -1090.71 117.776
vn -0.513532 -0.85807 1.22918e-16
vt -980.427 -328.826
vt -531.599 -328.826
vt -421.321 117.776
f 24/156/31 49/157/31 53/158/31 23/159/31 

vt 51.0342 -540.571
vn -0.388366 -0.83567 0.388366
vt -297.919 -122.998
vt -104.923 -540.571
vt -26.9444 -540.571
f 48/160/32 23/161/32 53/162/32 52/163/32 

vt -332.05 -106.894
vn -0.400319 -0.86139 0.312653
vt -28.2909 -558.409
vt 202.543 -106.894
f 23/164/33 48/165/33 7/166/33

